<?xml version="1.0" encoding="iso-8859-1"?>
<!-- Uploaded to: SVG Repo, www.svgrepo.com, Generator: SVG Repo Mixer Tools -->
<svg height="800px" width="800px" version="1.1" id="Layer_1" xmlns="http://www.w3.org/2000/svg" xmlns:xlink="http://www.w3.org/1999/xlink" 
	 viewBox="0 0 512 512" xml:space="preserve">
<path style="fill:#7C7A75;" d="M433.914,53.643c-4.536,0-8.214-3.677-8.214-8.214V8.214c0-4.537,3.678-8.214,8.214-8.214
	c4.537,0,8.214,3.677,8.214,8.214v37.216C442.128,49.967,438.452,53.643,433.914,53.643z"/>
<path style="fill:#CCC3A8;" d="M476.701,121.29c0,7.258-5.883,13.142-13.142,13.142h-59.292c-7.258,0-13.142-5.884-13.142-13.142
	V59.667c0-7.259,5.884-13.142,13.142-13.142h59.292c7.259,0,13.142,5.883,13.142,13.142V121.29z"/>
<path style="fill:#C9B585;" d="M412.3,121.29V59.667c0-7.259,5.884-13.142,13.142-13.142h-21.174
	c-7.258,0-13.142,5.883-13.142,13.142v61.623c0,7.258,5.884,13.142,13.142,13.142h21.174
	C418.184,134.432,412.3,128.548,412.3,121.29z"/>
<path style="fill:#FFB92E;" d="M377.524,171.935c-1.676-0.982-3.749-1.004-5.445-0.054l-118.316,66.27
	c-1.728,0.969-2.8,2.796-2.8,4.777v238.246c0,3.025,2.452,5.476,5.476,5.476h118.316c3.025,0,5.476-2.451,5.476-5.476V176.659
	C380.231,174.715,379.201,172.918,377.524,171.935z"/>
<path style="fill:#EF9A1D;" d="M283.818,221.317l-30.055,16.834c-1.728,0.969-2.8,2.796-2.8,4.777v238.246
	c0,3.025,2.452,5.476,5.476,5.476h27.38V221.317z"/>
<path style="fill:#F28838;" d="M259.208,171.935c-1.676-0.982-3.749-1.004-5.445-0.054l-118.316,66.27
	c-1.728,0.969-2.8,2.796-2.8,4.777v238.246c0,3.025,2.452,5.476,5.476,5.476h118.316c3.025,0,5.476-2.451,5.476-5.476V176.659
	C261.914,174.715,260.885,172.918,259.208,171.935z"/>
<path style="fill:#EF711D;" d="M165.501,222.05h-1.309l-28.746,16.1c-1.728,0.969-2.8,2.796-2.8,4.777v238.246
	c0,3.025,2.452,5.476,5.476,5.476h27.38V222.05z"/>
<path style="fill:#FFB92E;" d="M140.89,171.935c-1.677-0.982-3.749-1.004-5.445-0.054l-118.316,66.27
	c-1.728,0.969-2.8,2.796-2.8,4.777v238.246c0,3.025,2.451,5.476,5.476,5.476h118.316c3.025,0,5.476-2.451,5.476-5.476V176.659
	C143.598,174.715,142.568,172.918,140.89,171.935z"/>
<path style="fill:#EF9A1D;" d="M36.233,481.174v-19.383V242.928V227.45L17.13,238.151c-1.728,0.969-2.8,2.796-2.8,4.777v238.246
	c0,3.025,2.451,5.476,5.476,5.476h21.904C38.684,486.65,36.233,484.199,36.233,481.174z"/>
<path style="fill:#7C7A75;" d="M493.072,483.445c0,7.259-5.883,13.142-13.142,13.142h-92.032c-7.258,0-13.142-5.883-13.142-13.142
	V104.204c0-7.259,5.884-13.142,13.142-13.142h92.032c7.259,0,13.142,5.883,13.142,13.142V483.445z"/>
<g>
	<path style="fill:#52C6EB;" d="M343.525,309.534h-55.855c-3.025,0-5.476,2.451-5.476,5.476v50.641c0,3.025,2.451,5.476,5.476,5.476
		h55.855c3.025,0,5.476-2.451,5.476-5.476V315.01C349.001,311.985,346.55,309.534,343.525,309.534z"/>
	<path style="fill:#52C6EB;" d="M225.209,309.534h-55.855c-3.024,0-5.476,2.451-5.476,5.476v50.641c0,3.025,2.452,5.476,5.476,5.476
		h55.855c3.025,0,5.476-2.451,5.476-5.476V315.01C230.685,311.985,228.233,309.534,225.209,309.534z"/>
	<path style="fill:#52C6EB;" d="M106.892,309.534H51.038c-3.024,0-5.476,2.451-5.476,5.476v50.641c0,3.025,2.452,5.476,5.476,5.476
		h55.855c3.025,0,5.476-2.451,5.476-5.476V315.01C112.368,311.985,109.916,309.534,106.892,309.534z"/>
</g>
<g>
	<path style="fill:#969593;" d="M493.072,433.949h-62.028c-4.536,0-8.214,3.677-8.214,8.214c0,4.537,3.678,8.214,8.214,8.214h62.028
		L493.072,433.949L493.072,433.949z"/>
	<path style="fill:#969593;" d="M493.072,394.938h-62.028c-4.536,0-8.214,3.677-8.214,8.214c0,4.537,3.678,8.214,8.214,8.214h62.028
		L493.072,394.938L493.072,394.938z"/>
	<path style="fill:#969593;" d="M493.072,355.926h-62.028c-4.536,0-8.214,3.677-8.214,8.214c0,4.537,3.678,8.214,8.214,8.214h62.028
		L493.072,355.926L493.072,355.926z"/>
	<path style="fill:#969593;" d="M493.072,316.915h-62.028c-4.536,0-8.214,3.677-8.214,8.214c0,4.537,3.678,8.214,8.214,8.214h62.028
		L493.072,316.915L493.072,316.915z"/>
	<path style="fill:#969593;" d="M493.072,238.893h-62.028c-4.536,0-8.214,3.677-8.214,8.214s3.678,8.214,8.214,8.214h62.028
		L493.072,238.893L493.072,238.893z"/>
	<path style="fill:#969593;" d="M493.072,277.905h-62.028c-4.536,0-8.214,3.677-8.214,8.214c0,4.537,3.678,8.214,8.214,8.214h62.028
		L493.072,277.905L493.072,277.905z"/>
	<path style="fill:#969593;" d="M493.072,199.882h-62.028c-4.536,0-8.214,3.677-8.214,8.214s3.678,8.214,8.214,8.214h62.028
		L493.072,199.882L493.072,199.882z"/>
	<path style="fill:#969593;" d="M493.072,160.871h-62.028c-4.536,0-8.214,3.677-8.214,8.214c0,4.537,3.678,8.214,8.214,8.214h62.028
		L493.072,160.871L493.072,160.871z"/>
	<path style="fill:#969593;" d="M493.072,121.86h-62.028c-4.536,0-8.214,3.677-8.214,8.214c0,4.537,3.678,8.214,8.214,8.214h62.028
		L493.072,121.86L493.072,121.86z"/>
</g>
<path style="fill:#FFDFB8;" d="M347.358,284.343c0-4.537-3.677-8.214-8.214-8.214h-48.188c-4.536,0-8.214,3.677-8.214,8.214
	c0,4.537,3.678,8.214,8.214,8.214h48.188C343.682,292.557,347.358,288.88,347.358,284.343z"/>
<path style="fill:#F9C4A0;" d="M229.042,284.343c0-4.537-3.677-8.214-8.214-8.214H172.64c-4.536,0-8.214,3.677-8.214,8.214
	c0,4.537,3.678,8.214,8.214,8.214h48.188C225.364,292.557,229.042,288.88,229.042,284.343z"/>
<path style="fill:#FFDFB8;" d="M110.726,284.343c0-4.537-3.677-8.214-8.214-8.214H54.323c-4.536,0-8.214,3.677-8.214,8.214
	c0,4.537,3.678,8.214,8.214,8.214h48.188C107.048,292.557,110.726,288.88,110.726,284.343z"/>
<path style="fill:#6B6861;" d="M395.93,483.445V104.204c0-7.259,5.884-13.142,13.142-13.142h-21.174
	c-7.258,0-13.142,5.883-13.142,13.142v379.24c0,7.259,5.884,13.142,13.142,13.142h21.174
	C401.814,496.587,395.93,490.704,395.93,483.445z"/>
<g>
	<path style="fill:#3EACC6;" d="M303.369,365.651V315.01c0-3.025,2.451-5.476,5.476-5.476h-21.174c-3.025,0-5.476,2.451-5.476,5.476
		v50.641c0,3.025,2.451,5.476,5.476,5.476h21.174C305.82,371.127,303.369,368.676,303.369,365.651z"/>
	<path style="fill:#3EACC6;" d="M185.053,365.651V315.01c0-3.025,2.451-5.476,5.476-5.476h-21.174c-3.024,0-5.476,2.451-5.476,5.476
		v50.641c0,3.025,2.452,5.476,5.476,5.476h21.174C187.504,371.127,185.053,368.676,185.053,365.651z"/>
	<path style="fill:#3EACC6;" d="M66.736,365.651V315.01c0-3.025,2.451-5.476,5.476-5.476H51.038c-3.024,0-5.476,2.451-5.476,5.476
		v50.641c0,3.025,2.452,5.476,5.476,5.476h21.174C69.187,371.127,66.736,368.676,66.736,365.651z"/>
</g>
<path style="fill:#F9D19B;" d="M303.917,284.343c0-4.537,3.677-8.214,8.214-8.214h-21.174c-4.536,0-8.214,3.677-8.214,8.214
	c0,4.537,3.678,8.214,8.214,8.214h21.174C307.593,292.557,303.917,288.88,303.917,284.343z"/>
<path style="fill:#FCA468;" d="M185.6,284.343c0-4.537,3.677-8.214,8.214-8.214H172.64c-4.536,0-8.214,3.677-8.214,8.214
	c0,4.537,3.678,8.214,8.214,8.214h21.174C189.277,292.557,185.6,288.88,185.6,284.343z"/>
<path style="fill:#F9D19B;" d="M67.284,284.343c0-4.537,3.677-8.214,8.214-8.214H54.323c-4.536,0-8.214,3.677-8.214,8.214
	c0,4.537,3.678,8.214,8.214,8.214h21.174C70.96,292.557,67.284,288.88,67.284,284.343z"/>
<path style="fill:#CCC3A8;" d="M405.093,512h89.074c7.581,0,13.726-6.145,13.726-13.726v-3.373c0-7.581-6.145-13.726-13.726-13.726
	h-82.503H100.336H17.833c-7.581,0-13.726,6.145-13.726,13.726v3.373c0,7.581,6.145,13.726,13.726,13.726h82.503h276.71"/>
<path style="fill:#C9B585;" d="M26.471,498.274v-3.373c0-7.581,6.145-13.726,13.726-13.726H17.833
	c-7.581,0-13.726,6.145-13.726,13.726v3.373c0,7.581,6.145,13.726,13.726,13.726h22.364C32.616,512,26.471,505.855,26.471,498.274z"
	/>
</svg>