<?xml version="1.0" encoding="iso-8859-1"?>
<!-- Uploaded to: SVG Repo, www.svgrepo.com, Generator: SVG Repo Mixer Tools -->
<svg version="1.1" id="Layer_1" xmlns="http://www.w3.org/2000/svg" xmlns:xlink="http://www.w3.org/1999/xlink" 
	 viewBox="0 0 512 512" xml:space="preserve">
<path style="fill:#CCC3A8;" d="M90.784,426.68c-2.769,0-5.477-1.376-7.066-3.89c-20.348-32.211-33.013-67.123-37.642-103.766
	c-3.696-29.26-2.296-59.644,4.159-90.308c10.973-52.113,32.569-86.698,33.483-88.144c2.462-3.896,7.618-5.06,11.516-2.599
	c3.898,2.462,5.062,7.619,2.6,11.517c-0.387,0.619-21.149,34.134-31.383,83.255c-13.666,65.589-3.108,126.53,31.383,181.128
	c2.462,3.898,1.298,9.055-2.6,11.517C93.851,426.262,92.308,426.68,90.784,426.68z"/>
<path style="fill:#36A1CB;" d="M382.833,415.743c-0.013-0.181-0.026-0.362-0.041-0.542c-0.072-0.831-0.17-1.655-0.302-2.469
	c-0.022-0.132-0.048-0.263-0.071-0.394c-0.129-0.755-0.282-1.499-0.457-2.235c-0.028-0.12-0.053-0.244-0.083-0.363
	c-0.2-0.798-0.431-1.584-0.683-2.36c-0.05-0.151-0.102-0.302-0.154-0.452c-0.543-1.591-1.197-3.129-1.951-4.608
	c-0.061-0.117-0.119-0.236-0.181-0.352c-0.386-0.737-0.796-1.459-1.232-2.163c-0.037-0.06-0.076-0.117-0.114-0.176
	c-0.44-0.703-0.905-1.389-1.391-2.058c-0.026-0.036-0.051-0.072-0.077-0.108c-0.508-0.689-1.041-1.357-1.595-2.007
	c-0.053-0.062-0.107-0.121-0.159-0.184c-1.136-1.313-2.367-2.54-3.684-3.674c-0.034-0.029-0.068-0.059-0.102-0.088
	c-2.041-1.743-4.284-3.257-6.688-4.502c-0.017-0.009-0.031-0.017-0.047-0.023c-1.604-0.828-3.279-1.537-5.015-2.114
	c-0.009-0.003-0.018-0.008-0.026-0.01v0.001c-3.495-1.16-7.228-1.796-11.11-1.796h-24.565h-20.767h-24.565h-13.437h-59.406h-13.437
	h-24.565h-20.767h-24.565c-3.882,0-7.617,0.637-11.11,1.796v-0.001c-0.009,0.003-0.018,0.007-0.026,0.01
	c-1.736,0.578-3.41,1.286-5.014,2.113c-0.017,0.009-0.031,0.017-0.048,0.025c-2.404,1.245-4.647,2.759-6.688,4.502
	c-0.035,0.028-0.068,0.059-0.102,0.089c-1.317,1.133-2.548,2.36-3.684,3.673c-0.053,0.062-0.107,0.122-0.16,0.184
	c-0.554,0.65-1.087,1.318-1.595,2.007c-0.026,0.035-0.051,0.071-0.077,0.108c-0.488,0.669-0.951,1.355-1.391,2.058
	c-0.037,0.059-0.076,0.116-0.114,0.176c-0.436,0.703-0.845,1.426-1.231,2.161c-0.062,0.117-0.12,0.236-0.181,0.354
	c-0.755,1.478-1.408,3.016-1.951,4.606c-0.051,0.151-0.104,0.303-0.154,0.454c-0.254,0.775-0.484,1.56-0.683,2.359
	c-0.029,0.12-0.056,0.243-0.083,0.363c-0.176,0.736-0.328,1.48-0.457,2.235c-0.023,0.131-0.049,0.262-0.071,0.394
	c-0.13,0.813-0.228,1.636-0.302,2.468c-0.017,0.18-0.028,0.362-0.041,0.544c-0.062,0.855-0.106,1.715-0.106,2.587
	c0,0.609,0.016,1.214,0.047,1.815c0.061,1.202,0.181,2.389,0.36,3.555c0.178,1.169,0.415,2.316,0.705,3.444
	c0.291,1.128,0.634,2.232,1.031,3.312c0.396,1.081,0.841,2.136,1.337,3.164c5.697,11.821,17.791,19.977,31.792,19.977l0,0h24.565
	l0,0h20.767l0,0h11.204h13.361l0,0h1.546h9.659h3.633h11.273h3.633h2.228h7.431h7.476h7.431h2.228h3.633h11.274h3.633h9.659h1.546
	l0,0h13.361h11.204l0,0h20.767l0,0h24.565l0,0c13.391,0,25.039-7.463,31.012-18.456c2.715-4.998,4.257-10.724,4.257-16.81
	C382.938,417.459,382.895,416.598,382.833,415.743z"/>
<path style="fill:#2B80AF;" d="M112.062,433.621c-0.495-1.028-0.942-2.084-1.337-3.164c-0.395-1.081-0.74-2.185-1.031-3.312
	c-0.289-1.128-0.526-2.275-0.705-3.444c-0.178-1.168-0.299-2.353-0.36-3.555c-0.031-0.601-0.047-1.207-0.047-1.815
	c0-0.871,0.043-1.733,0.106-2.587c0.013-0.183,0.024-0.364,0.041-0.544c0.072-0.831,0.17-1.654,0.302-2.468
	c0.022-0.132,0.048-0.263,0.071-0.394c0.129-0.755,0.282-1.499,0.457-2.235c0.028-0.12,0.055-0.244,0.083-0.363
	c0.2-0.798,0.431-1.584,0.683-2.359c0.05-0.152,0.102-0.303,0.154-0.454c0.543-1.589,1.197-3.128,1.951-4.606
	c0.061-0.118,0.119-0.237,0.181-0.354c0.387-0.736,0.796-1.459,1.231-2.162c0.037-0.06,0.076-0.117,0.114-0.176
	c0.441-0.703,0.905-1.389,1.391-2.058c0.026-0.036,0.051-0.072,0.077-0.108c0.508-0.689,1.041-1.357,1.595-2.007
	c0.053-0.061,0.107-0.121,0.16-0.184c1.136-1.313,2.367-2.54,3.684-3.673c0.035-0.03,0.068-0.061,0.102-0.089
	c2.041-1.743,4.284-3.257,6.688-4.502c0.017-0.009,0.031-0.017,0.048-0.024c1.603-0.827,3.278-1.536,5.014-2.113
	c0.009-0.003,0.018-0.007,0.026-0.01v0.001c3.495-1.16,7.228-1.796,11.11-1.796h-22.261c-3.882,0-7.617,0.637-11.11,1.796v-0.001
	c-0.009,0.003-0.018,0.007-0.026,0.01c-1.736,0.578-3.41,1.286-5.014,2.113c-0.017,0.009-0.031,0.017-0.048,0.024
	c-2.404,1.245-4.647,2.759-6.688,4.502c-0.035,0.028-0.068,0.059-0.102,0.089c-1.317,1.133-2.548,2.36-3.684,3.673
	c-0.053,0.062-0.107,0.122-0.16,0.184c-0.554,0.65-1.087,1.318-1.595,2.007c-0.026,0.035-0.051,0.071-0.077,0.108
	c-0.488,0.669-0.951,1.355-1.391,2.058c-0.037,0.059-0.076,0.116-0.114,0.176c-0.436,0.703-0.845,1.426-1.231,2.162
	c-0.062,0.117-0.12,0.236-0.181,0.354c-0.755,1.478-1.408,3.016-1.951,4.606c-0.051,0.151-0.104,0.303-0.154,0.454
	c-0.254,0.775-0.484,1.56-0.683,2.359c-0.029,0.12-0.056,0.243-0.083,0.363c-0.176,0.736-0.328,1.48-0.457,2.235
	c-0.023,0.131-0.049,0.262-0.071,0.394c-0.13,0.813-0.228,1.636-0.302,2.468c-0.017,0.18-0.028,0.362-0.041,0.544
	c-0.062,0.855-0.106,1.715-0.106,2.587c0,0.609,0.016,1.214,0.047,1.815c0.061,1.202,0.181,2.389,0.36,3.555
	c0.178,1.169,0.415,2.316,0.705,3.444c0.291,1.128,0.634,2.232,1.031,3.312c0.396,1.081,0.841,2.136,1.337,3.164
	c5.697,11.82,17.791,19.977,31.792,19.977l0,0h22.261C129.853,453.597,117.759,445.441,112.062,433.621z"/>
<path style="fill:#36A1CB;" d="M184.81,207.97h-57.176c-3.689,0-6.678,2.99-6.678,6.678v140.693c0,2.536,1.436,4.853,3.706,5.981
	c0.942,0.467,1.959,0.697,2.971,0.697c1.43,0,2.853-0.46,4.036-1.358c7.741-5.87,16.671-8.974,25.828-8.974
	c8.294,0,16.45,2.537,23.585,7.338c2.047,1.377,4.688,1.512,6.866,0.353c2.178-1.16,3.539-3.426,3.539-5.895V214.648
	C191.488,210.96,188.499,207.97,184.81,207.97z"/>
<path style="fill:#2B80AF;" d="M143.216,214.648c0-3.689,2.99-6.678,6.678-6.678h-22.261c-3.689,0-6.678,2.99-6.678,6.678v140.693
	c0,2.536,1.436,4.853,3.706,5.981c0.942,0.467,1.959,0.697,2.971,0.697c1.43,0,2.853-0.46,4.036-1.358
	c3.622-2.746,7.504-4.878,11.548-6.378V214.648z"/>
<rect x="136.16" y="104.548" style="fill:#DFDBCC;" width="40.114" height="86.724"/>
<g>
	<circle style="fill:#FFB92E;" cx="347.994" cy="418.337" r="34.948"/>
	<path style="fill:#FFB92E;" d="M157.497,324.874c-26.739,0-48.417,21.679-48.417,48.417c0,26.741,21.679,48.417,48.417,48.417
		c26.741,0,48.417-21.677,48.417-48.417C205.914,346.552,184.239,324.874,157.497,324.874z M156.223,388.459
		c-8.378,0-15.167-6.792-15.167-15.167c0-8.376,6.79-15.167,15.167-15.167c8.376,0,15.167,6.792,15.167,15.167
		C171.391,381.667,164.599,388.459,156.223,388.459z"/>
</g>
<g>
	<path style="fill:#7C7A75;" d="M70.66,112.987v11.593v4.237v11.593c0,8.651,7.013,15.663,15.663,15.663
		c8.652,0,15.665-7.013,15.665-15.663v-11.593v-4.237v-11.593C101.988,112.987,70.66,112.987,70.66,112.987z"/>
	<path style="fill:#7C7A75;" d="M20.097,18.364v12.964v36.159v12.965c0,7.07,5.73,12.8,12.8,12.8h189.715h27.826h36.113
		c7.069,0,12.8-5.73,12.8-12.8V67.488V31.328V18.364H20.097z"/>
</g>
<g>
	<path style="fill:#CCC3A8;" d="M481.78,383.279c-11.29-15.596-29.498-24.907-48.707-24.907c-25.983,0-48.165,16.572-56.544,39.7
		c-6.38-9.071-16.924-15.006-28.861-15.006h-1.115c13.991-34.044,47.494-58.084,86.519-58.084c29.885,0,58.202,14.474,75.754,38.717
		c5.406,7.47,3.736,17.907-3.734,23.313C497.625,392.42,487.186,390.748,481.78,383.279z"/>
	<path style="fill:#CCC3A8;" d="M346.428,453.597h1.241c11.892,0,22.4-5.889,28.789-14.905c8.318,23.24,30.552,39.916,56.615,39.916
		c19.211,0,37.418-9.306,48.709-24.898c5.408-7.467,15.848-9.137,23.315-3.729c4.509,3.267,6.902,8.366,6.902,13.537
		c0,3.394-1.031,6.82-3.174,9.778C491.273,497.533,462.956,512,433.073,512C393.924,512,360.341,487.809,346.428,453.597z"/>
	<polyline style="fill:#CCC3A8;" points="289.365,93.252 271.556,124.581 209.623,124.581 208.014,124.581 197.377,124.581 
		185.949,124.581 184.341,124.581 135.445,124.581 133.837,124.581 122.406,124.581 111.768,124.581 110.16,124.581 48.227,124.581 
		30.418,93.252 	"/>
</g>
<g>
	<circle style="fill:#F28838;" cx="347.994" cy="418.337" r="10.384"/>
	<path style="fill:#F28838;" d="M156.223,396.807c-12.967,0-23.515-10.548-23.515-23.515c0-12.967,10.548-23.515,23.515-23.515
		c12.965,0,23.515,10.548,23.515,23.515C179.739,386.257,169.188,396.807,156.223,396.807z M156.223,366.472
		c-3.761,0-6.82,3.06-6.82,6.82c0,3.76,3.059,6.82,6.82,6.82c3.76,0,6.82-3.06,6.82-6.82S159.983,366.472,156.223,366.472z"/>
</g>
<path style="fill:#8BD8F7;" d="M184.81,191.274h-57.176c-3.689,0-6.678,2.99-6.678,6.678v45.856h70.532v-45.856
	C191.488,194.264,188.499,191.274,184.81,191.274z"/>
<g>
	<path style="fill:#EF9A1D;" d="M335.301,418.331c0-15.408,9.976-28.478,23.819-33.128c-3.498-1.175-7.238-1.821-11.13-1.821
		c-19.302,0-34.95,15.648-34.95,34.947c0,19.302,15.648,34.95,34.95,34.95c3.892,0,7.632-0.646,11.13-1.821
		C345.277,446.81,335.301,433.74,335.301,418.331z"/>
	<path style="fill:#EF9A1D;" d="M131.34,373.291c0-22.906,15.915-42.087,37.287-47.117c-3.575-0.841-7.298-1.3-11.13-1.3
		c-26.739,0-48.417,21.679-48.417,48.417c0,26.741,21.679,48.417,48.417,48.417c3.832,0,7.555-0.459,11.13-1.3
		C147.256,415.378,131.34,396.2,131.34,373.291z"/>
</g>
<path style="fill:#6B6861;" d="M42.358,80.452V67.488V31.328V18.364H20.097v12.964v36.159v12.965c0,7.07,5.73,12.8,12.8,12.8h22.261
	C48.088,93.252,42.358,87.522,42.358,80.452z"/>
<polygon style="fill:#C9B585;" points="30.418,93.252 48.227,124.581 70.488,124.581 52.679,93.252 "/>
<path style="fill:#57BEDD;" d="M149.895,191.274h-22.261c-3.689,0-6.678,2.99-6.678,6.678v45.856h22.261v-45.856
	C143.216,194.264,146.206,191.274,149.895,191.274z"/>
<path style="fill:#CCC3A8;" d="M319.982,17.378V13.95c0-7.704-6.246-13.95-13.95-13.95h-77.17h-6.678H97.8h-6.678h-77.17
	C6.248,0,0.001,6.245,0.001,13.95v3.428c0,7.704,6.245,13.95,13.95,13.95h77.17h6.678h127.046h6.678h21.517h3.647h3.031h3.647
	h42.665C313.736,31.328,319.982,25.082,319.982,17.378z"/>
<path style="fill:#C9B585;" d="M22.262,17.378V13.95C22.262,6.245,28.508,0,36.213,0H13.952C6.248,0,0.001,6.245,0.001,13.95v3.428
	c0,7.704,6.245,13.95,13.95,13.95h22.261C28.508,31.328,22.262,25.082,22.262,17.378z"/>
</svg>