<?xml version="1.0" encoding="iso-8859-1"?>
<!-- Uploaded to: SVG Repo, www.svgrepo.com, Generator: SVG Repo Mixer Tools -->
<svg version="1.1" id="Layer_1" xmlns="http://www.w3.org/2000/svg" xmlns:xlink="http://www.w3.org/1999/xlink" 
	 viewBox="0 0 512 512" xml:space="preserve">
<rect x="154.317" y="307.897" style="fill:#66635D;" width="94.485" height="32.285"/>
<path style="fill:#7C7A75;" d="M154.183,189.762h-3.532c-7.939,0-14.376,6.438-14.376,14.376v11.223v38.759v11.223v2.238v9.503
	v1.721v9.503v2.238v11.223v1.983v11.223v2.238v9.505v1.719v9.505v2.236v0.117v11.106v0.117h32.285v-0.117v-11.106v-0.117v-2.236
	v-9.505v-1.719v-9.505v-2.238v-11.223v-1.983v-11.223v-2.238v-9.503v-1.721v-9.503v-2.238v-11.223v-38.759v-11.223
	C168.559,196.199,162.122,189.762,154.183,189.762z"/>
<path style="fill:#ADABA6;" d="M282.392,287.172c-3.351,0-6.5-2.055-7.736-5.38l-60.707-163.42H195.07
	c-4.558,0-8.25-3.693-8.25-8.25s3.693-8.25,8.25-8.25h24.616c3.449,0,6.533,2.144,7.733,5.378l62.705,168.797
	c1.586,4.272-0.59,9.019-4.861,10.607C284.317,287.005,283.346,287.172,282.392,287.172z"/>
<rect id="SVGCleanerId_0" x="297.931" y="296.049" style="fill:#DFDBCC;" width="140.5" height="102.251"/>
<g>
	<rect id="SVGCleanerId_0_1_" x="297.931" y="296.049" style="fill:#DFDBCC;" width="140.5" height="102.251"/>
</g>
<rect x="297.931" y="296.049" style="fill:#DDD3B1;" width="34.432" height="102.251"/>
<path style="fill:#CCC3A8;" d="M394.115,89.341V58.644c0-9.59-7.775-17.365-17.365-17.365h-3.859
	c-9.589,0-17.362,7.774-17.362,17.365v321.624c6.08,4.803,11.037,10.963,14.4,18.033h24.186V115.742"/>
<path style="fill:#C9B585;" d="M378.494,89.341V58.644c0-6.058,3.108-11.387,7.812-14.493c-2.741-1.811-6.023-2.871-9.555-2.871
	h-3.859c-9.589,0-17.362,7.774-17.362,17.365v321.624c6.08,4.803,11.037,10.963,14.4,18.033h8.565V115.742L378.494,89.341
	L378.494,89.341z"/>
<rect x="355.53" y="155.857" style="fill:#DFDBCC;" width="38.59" height="119.291"/>
<rect x="355.53" y="155.857" style="fill:#DDD3B1;" width="22.965" height="119.291"/>
<rect x="101.36" y="339.073" style="fill:#ADABA6;" width="159.795" height="59.225"/>
<polygon style="fill:#9E9A92;" points="155.477,339.076 101.358,339.076 101.358,398.302 200.864,398.302 "/>
<path style="fill:#FFB92E;" d="M292.036,273.86h-43.62c-4.851,0.571-12.332,3.537-12.332,16.426v108.015v41.482h41.369h31.947
	v-68.236v-80.325C309.401,281.633,301.626,273.86,292.036,273.86z"/>
<path style="fill:#EF9A1D;" d="M248.417,273.86c-4.851,0.571-12.332,3.537-12.332,16.426v108.015v41.482h22.001v-68.236v-80.325
	c0-9.59,7.775-17.363,17.365-17.363L248.417,273.86L248.417,273.86z"/>
<polygon style="fill:#52C6EB;" points="66.784,120.51 107.783,120.51 107.783,275.15 45.08,275.15 "/>
<polygon style="fill:#3EACC6;" points="66.784,120.51 45.08,275.15 67.081,275.15 88.785,120.51 "/>
<path style="fill:#FFB92E;" d="M251.072,93.979h-49.98h-13.46h-9.505h-13.46h-13.205h-13.46h-9.503h-13.46H65.055
	c-7.939,0-14.376,6.438-14.376,14.376v3.532c0,7.94,6.436,14.376,14.376,14.376h154.631h31.386c7.941,0,14.376-6.436,14.376-14.376
	v-3.532C265.448,100.416,259.014,93.979,251.072,93.979z"/>
<path style="fill:#EF9A1D;" d="M72.768,111.888v-3.532c0-7.939,6.436-14.376,14.376-14.376H65.055
	c-7.939,0-14.376,6.438-14.376,14.376v3.532c0,7.94,6.436,14.376,14.376,14.376h22.09C79.205,126.263,72.768,119.828,72.768,111.888
	z"/>
<path style="fill:#FFB92E;" d="M174.346,439.784v-41.482l-66.564-85.855V273.86H45.08c-9.59,0-17.366,7.773-17.366,17.363v83.646
	c6.896-3.512,14.695-5.508,22.965-5.508c27.989,0,50.679,22.691,50.679,50.679c0,7.005-1.42,13.676-3.99,19.743h76.978V439.784z"/>
<path style="fill:#EF9A1D;" d="M49.715,291.224c0-9.59,7.775-17.363,17.366-17.363H45.08c-9.59,0-17.366,7.773-17.366,17.363v83.646
	c6.626-3.375,14.092-5.33,22.001-5.478V291.224z"/>
<path style="fill:#7C7A75;" d="M101.358,420.041c0,27.992-22.69,50.679-50.679,50.679S0,448.033,0,420.041
	c0-27.988,22.69-50.679,50.679-50.679C78.669,369.361,101.358,392.052,101.358,420.041z"/>
<circle style="fill:#CCC3A8;" cx="50.68" cy="420.038" r="18.756"/>
<path style="fill:#7C7A75;" d="M374.821,420.041c0,27.992-22.689,50.679-50.678,50.679s-50.678-22.687-50.678-50.679
	c0-27.988,22.689-50.679,50.678-50.679C352.132,369.361,374.821,392.052,374.821,420.041z"/>
<g>
	<path style="fill:#6B6861;" d="M22.001,420.041c0-24.209,16.981-44.442,39.678-49.469c-3.543-0.784-7.221-1.211-11.001-1.211
		C22.69,369.361,0,392.052,0,420.041c0,27.992,22.69,50.679,50.679,50.679c3.78,0,7.457-0.427,11.001-1.211
		C38.982,464.484,22.001,444.254,22.001,420.041z"/>
	<path style="fill:#6B6861;" d="M295.465,420.041c0-24.209,16.981-44.442,39.677-49.469c-3.543-0.784-7.221-1.211-11.001-1.211
		c-27.989,0-50.678,22.691-50.678,50.679c0,27.992,22.689,50.679,50.678,50.679c3.78,0,7.457-0.427,11.001-1.211
		C312.446,464.484,295.465,444.254,295.465,420.041z"/>
</g>
<circle style="fill:#CCC3A8;" cx="324.145" cy="420.038" r="18.756"/>
<g>
	<path style="fill:#7C7A75;" d="M503.75,428.292h-65.314c-4.556,0-8.25-3.693-8.25-8.25V296.047c0-4.558,3.694-8.25,8.25-8.25
		c4.558,0,8.25,3.693,8.25,8.25v115.743h57.064c4.558,0,8.25,3.694,8.25,8.25S508.307,428.292,503.75,428.292z"/>
	<rect x="174.349" y="398.301" style="fill:#7C7A75;" width="61.736" height="41.482"/>
</g>
<rect x="174.349" y="398.301" style="fill:#6B6861;" width="22.001" height="41.482"/>
</svg>